<svg width="462" height="462" viewBox="0 0 462 462" fill="none" xmlns="http://www.w3.org/2000/svg">
<g clip-path="url(#clip0_65_4)">
<path d="M163.8 230.2C158.5 225.1 154 221 149.7 216.7C104.7 172.3 59.7002 127.8 14.7002 83.4001C11.8002 80.5001 8.90021 77.7001 6.00021 74.7001C-1.79979 66.7001 -2.09979 57.3001 5.70021 49.4001C20.2002 34.7001 34.8002 20.0001 49.4002 5.4001C56.5002 -1.6999 66.5002 -1.5999 73.7002 5.4001C105.5 36.7001 137.2 68.1001 169 99.5001C188.9 119.1 208.7 138.7 228.5 158.3C230.5 160.2 231.6 159.9 233.3 158.1C263.2 128.4 293.2 98.7001 323.1 69.1001C344.4 48.0001 365.8 26.9001 387.1 5.8001C394.9 -1.8999 404.8 -1.9999 412.5 5.7001C426.7 19.9001 440.9 34.1001 455 48.4001C464 57.5001 463.8 66.6001 454.6 75.6001C407.4 122.2 360.2 168.8 313 215.5C309 219.4 305.2 223.5 301.1 227.3C299.1 229.2 299.2 230.4 301.1 232.4C317.2 248.4 333.1 264.6 349.2 280.6C380.2 311.7 411.2 342.8 442.1 373.8C446.4 378.1 450.7 382.3 455 386.7C463.4 395.3 463.5 404.2 455 412.8C440.6 427.5 426 442 411.4 456.5C404.6 463.2 394.6 463.3 387.7 456.5C367.8 436.7 347.9 416.7 328 396.8C301.3 370 274.6 343.2 247.9 316.5C243.1 311.7 238.2 306.9 233.5 301.9C231.4 299.7 230.1 299.6 227.8 301.8C195.6 334.3 163.3 366.7 131 399.1C112.1 418.1 93.2002 437 74.3002 456C66.9002 463.5 56.9002 463.6 49.5002 456.2C35.1002 441.8 20.8002 427.4 6.50021 413C-2.19979 404.2 -1.99979 395.2 6.70021 386.4C50.5002 342.4 94.4002 298.4 138.3 254.5C146.6 246.5 154.9 238.8 163.8 230.2Z" fill="white"/>
</g>
<defs>
<clipPath id="clip0_65_4">
<rect width="461.7" height="461.8" fill="white"/>
</clipPath>
</defs>
</svg>
