<svg width="462" height="462" viewBox="0 0 462 462" fill="none" xmlns="http://www.w3.org/2000/svg">
<path d="M182.981 277.77C175.627 277.911 169.546 278.194 163.465 278.194C100.25 278.618 36.9637 278.972 -26.2516 279.396C-30.3528 279.396 -34.3834 279.467 -38.5553 279.396C-49.7276 279.255 -56.5865 272.82 -56.6572 261.719C-56.7986 241.071 -56.8694 220.353 -56.8694 199.705C-56.8694 189.664 -49.7276 182.664 -39.6867 182.523C4.93178 182.169 49.5502 181.957 94.2394 181.674C122.17 181.462 150.03 181.321 177.89 181.179C180.648 181.108 181.214 180.119 181.143 177.644C181.284 135.5 181.496 93.2858 181.708 51.213C181.85 21.2316 182.062 -8.82042 182.203 -38.8017C182.274 -49.7619 189.204 -56.8329 200.093 -56.833C220.175 -56.833 240.257 -56.833 260.339 -56.6915C273.137 -56.6208 279.431 -50.0447 279.289 -37.1754C278.865 29.1512 278.441 95.4778 278.087 161.875C278.016 167.461 278.229 173.047 278.016 178.634C277.946 181.391 278.865 182.169 281.623 182.24C304.321 182.169 327.019 182.381 349.717 182.311C393.628 182.381 437.54 182.452 481.31 182.523C487.391 182.523 493.401 182.452 499.553 182.523C511.574 182.664 517.938 188.887 518.008 200.978C518.221 221.555 518.15 242.132 518.079 262.709C518.008 272.255 511.008 279.396 501.321 279.467C473.249 279.538 445.035 279.467 416.892 279.467C379.062 279.396 341.232 279.326 303.472 279.326C296.684 279.326 289.825 279.396 282.966 279.184C279.926 279.113 278.936 279.962 278.865 283.144C279.077 328.894 279.148 374.644 279.218 420.393C279.289 447.193 279.289 473.921 279.36 500.721C279.431 511.257 272.43 518.398 261.965 518.398C241.6 518.398 221.306 518.328 201.012 518.257C188.638 518.186 182.416 511.681 182.345 499.307C182.203 437.223 182.133 375.068 182.133 312.984C182.345 301.458 182.769 290.144 182.981 277.77Z" fill="#B9BBBE"/>
</svg>
