<svg width="374" height="374" viewBox="0 0 374 374" fill="none" xmlns="http://www.w3.org/2000/svg">
<g clip-path="url(#clip0_64_2)">
<path d="M338 83.8C337.9 89.2 336.1 94 332.8 98.3C327.6 104.9 322.5 111.6 317.3 118.2C315.7 120.2 315.3 121.8 316.5 124.3C318.9 129.3 320.9 134.5 322.8 139.7C323.6 141.9 324.8 142.7 327 143C335.4 143.9 343.7 144.9 352 146.1C365.8 148 373.6 157.1 373.6 171.2C373.6 181.8 373.6 192.4 373.6 203C373.6 216.4 365.3 225.9 352.2 227.6C343.8 228.7 335.3 229.8 326.9 230.8C324.6 231.1 323.6 232 322.8 234.1C321 239.1 319.1 244.1 316.7 248.9C315.3 251.7 315.7 253.5 317.6 255.8C322.7 262.1 327.6 268.5 332.5 274.9C340.5 285.2 340 297.6 330.8 306.9C322.8 315.1 314.7 323.2 306.5 331.2C298 339.5 285.6 340.3 276 333.2C269 328 262.1 322.6 255.3 317.1C253.4 315.5 251.9 315.3 249.5 316.4C244.4 318.8 239.1 321 233.8 322.9C231.7 323.7 231 324.8 230.8 326.9C229.7 336.1 228.7 345.3 227.1 354.5C225.2 365.8 215.8 373.6 204.3 373.7C192.7 373.8 181.1 373.8 169.6 373.7C157.7 373.6 148.2 365.5 146.4 353.8C145.1 345.2 144.1 336.5 143.1 327.8C142.8 325.1 142.1 323.6 139.2 322.6C134 320.9 129 318.7 124.1 316.4C121.9 315.4 120.4 315.5 118.5 317C112.4 321.9 106.1 326.7 99.8998 331.5C87.8998 340.9 76.0998 340.2 65.3998 329.6C57.9998 322.2 50.4998 314.8 43.1998 307.4C33.7998 297.9 32.8998 285.8 41.0998 275.2C46.2998 268.3 51.5998 261.5 56.9998 254.8C58.2998 253.2 58.3998 252 57.4998 250.1C55.0998 244.8 52.7998 239.5 50.7998 234.1C49.9998 231.9 48.8998 231.1 46.5998 230.8C37.2998 229.7 27.8998 228.6 18.6998 227.1C7.69981 225.2 0.0998047 215.8 -0.00019531 204.7C-0.100195 192.9 -0.100195 181.1 -0.00019531 169.3C0.0998047 158.3 7.49981 148.9 18.3998 146.9C27.4998 145.3 36.7998 144.3 45.9998 143.2C48.5998 142.9 49.9998 142.1 50.8998 139.5C52.7998 134.2 55.0998 129 57.3998 123.8C58.1998 122 58.1998 120.7 56.8998 119.1C51.4998 112.4 46.1998 105.5 40.9998 98.7C32.7998 88 33.6998 75.7 43.2998 66.2C51.0998 58.4 58.8998 50.6 66.6998 42.8C75.3998 34.1 87.4998 33.1 97.3998 40.4C104.7 45.8 111.8 51.4 118.9 57.1C120.5 58.4 121.7 58.5 123.6 57.6C128.9 55.2 134.2 53 139.6 51C141.8 50.2 142.7 49 142.9 46.8C143.9 38.2 145 29.7 146.1 21.1C147.9 8.2 157.2 0 170.1 0C181.2 0 192.4 0 203.5 0C216.5 0 226.1 8.7 227.6 21.6C228.6 30.2 229.7 38.7 230.9 47.3C231.1 48.5 232.3 50 233.4 50.5C239.1 53.1 244.8 55.4 250.6 57.6C251.6 58 253.4 57.7 254.3 57.1C261.1 52 267.8 46.7 274.5 41.5C285.6 32.9 297.5 33.5 307.5 43.4C315.4 51.2 323.3 59.1 331.1 67C336 71.9 338.1 77.2 338 83.8ZM264.6 186.6C264.4 143.7 229.5 108.9 186.7 109C143.7 109.1 108.8 144.2 109 187.1C109.2 229.9 144.5 264.9 187 264.7C229.9 264.4 264.9 229.2 264.6 186.6Z" fill="#B9BBBE"/>
</g>
<defs>
<clipPath id="clip0_64_2">
<rect width="373.7" height="373.7" fill="white"/>
</clipPath>
</defs>
</svg>
