<svg width="430" height="430" viewBox="0 0 430 430" fill="none" xmlns="http://www.w3.org/2000/svg">
<circle cx="214.92" cy="214.92" r="214.92" fill="#B9BBBE"/>
<g clip-path="url(#clip0_82_9)">
<path d="M368.53 364.44C364.59 347.87 356.45 333.49 345.23 321C329.53 303.51 310.21 291.13 288.33 282.63C280.34 279.53 272.26 276.69 263.9 274.81C252.64 272.27 241.33 270.18 229.71 269.54C221.76 269.1 213.83 268.92 205.89 269.15C187.24 269.7 169.08 273.09 151.32 278.84C136.52 283.63 122.72 290.39 109.81 299.06C100.15 305.55 91.55 313.18 83.85 321.89C73.5 333.61 65.85 346.8 61.67 361.92C60.9 364.71 59.52 363.58 58.43 362.39C55.13 358.76 51.89 355.07 48.75 351.3C36.55 336.65 26.58 320.57 18.77 303.22C10.87 285.67 5.45997 267.34 2.47997 248.28C0.13997 233.08 -0.46003 217.8 0.32997 202.49C1.63997 177.15 7.49997 152.82 17.55 129.51C25.74 110.51 36.48 93.06 49.72 77.22C66.83 56.74 87.07 39.92 110.46 26.97C132.36 14.85 155.64 6.64997 180.35 2.64997C187.22 1.53997 194.16 0.949965 201.13 0.489965C208.5 0.0099653 215.85 -0.150035 223.19 0.129965C251.65 1.18997 278.89 7.53997 304.77 19.54C313.17 23.43 321.37 27.68 329.1 32.75C341.45 40.85 353.34 49.52 363.87 60.02C380.53 76.63 394.91 94.84 405.72 115.82C417.3 138.27 424.82 161.94 428.06 187.01C429.58 198.74 430.15 210.5 429.68 222.29C429.2 234.33 427.55 246.25 425.3 258.11C420.33 284.34 410.13 308.4 395.92 330.85C388.49 342.59 379.81 353.38 370.27 363.48C369.88 363.89 369.55 364.44 368.53 364.42V364.44ZM214.61 252.7C259.29 253.57 297.57 216.09 297.56 170.78C297.56 147.59 289.53 127.53 272.89 111.44C251.92 91.16 226.73 83.58 198.01 89.39C179 93.23 163.32 103.11 150.94 118.01C138.49 132.99 132.65 150.39 132.29 169.83C131.47 213.9 169.42 253.99 214.61 252.71V252.7Z" fill="#37393F"/>
</g>
<defs>
<clipPath id="clip0_82_9">
<rect width="429.84" height="364.44" fill="white"/>
</clipPath>
</defs>
</svg>
